<svg width="24" height="19" viewBox="0 0 24 19" fill="none" xmlns="http://www.w3.org/2000/svg">
<path fill-rule="evenodd" clip-rule="evenodd" d="M9.19812 6.63186C9.82156 7.26309 10.3671 7.94888 10.8113 8.69701C11.7309 7.91771 12.6972 7.27088 13.8038 6.94358C14.1623 7.63716 14.2324 8.89183 14.1857 9.67893C15.2845 9.46072 16.3521 9.375 17.3808 9.47631C17.7549 6.48379 17.6224 2.99252 17.1782 0C14.2012 1.43392 11.5828 3.74844 9.20591 6.64744L9.19812 6.63186Z" fill="#FF6600"/>
<path fill-rule="evenodd" clip-rule="evenodd" d="M4.46779 18.9916C-0.371671 17.3239 -1.564 11.6662 2.30133 0.46759C9.55663 6.57732 14.4974 12.4922 10.4139 17.6824C10.0086 14.8925 8.40327 12.6091 5.43413 10.9102C3.80539 13.2871 3.80539 16.0614 4.47559 18.9838L4.46779 18.9916Z" fill="#33CC33"/>
<path fill-rule="evenodd" clip-rule="evenodd" d="M12.027 10.6453C12.4011 11.4324 12.6271 12.2351 12.7284 13.0534C13.8817 13.0378 15.0039 13.2793 16.1105 13.6534C15.2689 15.7965 13.8194 17.3317 11.8867 18.376C16.5392 20.1138 20.3889 16.5914 23.849 10.544C19.8278 9.71015 15.869 9.55429 12.027 10.6453Z" fill="#0057B3"/>
</svg>
